<?xml version="1.0" encoding="UTF-8" standalone="no"?>
<svg
   width="329.6185"
   height="122.08092"
   viewBox="0 0 329.6185 122.08092"
   fill="none"
   version="1.1"
   id="svg4"
   xmlns="http://www.w3.org/2000/svg"
   xmlns:svg="http://www.w3.org/2000/svg">
  <defs
     id="defs4" />
  <g
     id="g4">
    <rect
       style="fill:#ffffff"
       id="rect4"
       width="329.6185"
       height="122.08092"
       x="0"
       y="0" />
    <path
       d="m 153.198,104.92 v -3.238 h 6.548 c 1.607,0 2.902,-0.444 3.886,-1.331 0.983,-0.8879 1.475,-2.0511 1.475,-3.4902 0,-1.3911 -0.456,-2.5064 -1.367,-3.3458 -0.912,-0.8635 -2.123,-1.2952 -3.634,-1.2952 h -6.908 v -3.2379 h 6.908 c 1.823,0 3.406,0.3238 4.749,0.9713 1.343,0.6476 2.386,1.559 3.13,2.7343 0.743,1.1752 1.115,2.5663 1.115,4.1733 0,1.607 -0.384,3.0221 -1.151,4.2452 -0.768,1.199 -1.859,2.135 -3.274,2.806 -1.391,0.672 -3.022,1.008 -4.893,1.008 z m -2.734,9.174 V 88.9819 h 3.814 v 25.1121 z m 33.509,0 V 88.9819 h 3.813 v 25.1121 z m -6.296,-25.1121 h 16.369 v 3.2379 h -16.369 z m 0,21.8741 h 16.369 v 3.238 h -16.369 z m 27.104,3.238 V 88.9819 h 3.814 v 21.8741 h 13.168 v 3.238 z m 27.609,-6.332 v -3.238 h 13.923 v 3.238 z m 4.029,-18.7801 h 5.469 l 7.771,25.1121 h -3.922 l -5.072,-16.6216 -1.512,-5.5045 -1.511,5.5405 -5.144,16.5856 h -3.85 z m 27.465,25.1121 V 92.2198 h -8.095 v -3.2379 h 20.003 v 3.2379 h -8.095 v 21.8742 z m 19.837,0 V 88.9819 h 18.024 v 3.2379 h -14.21 v 7.2313 h 9.785 v 3.2379 h -9.785 v 8.167 h 14.354 v 3.238 z m 35.703,0.431 c -1.943,0 -3.633,-0.371 -5.073,-1.115 -1.439,-0.743 -2.554,-1.811 -3.345,-3.202 -0.792,-1.391 -1.188,-3.082 -1.188,-5.073 h 3.778 c 0,1.967 0.516,3.49 1.547,4.57 1.031,1.055 2.446,1.583 4.245,1.583 1.535,0 2.77,-0.348 3.706,-1.044 0.935,-0.719 1.403,-1.715 1.403,-2.986 0,-0.863 -0.264,-1.559 -0.792,-2.087 -0.503,-0.527 -1.187,-0.959 -2.05,-1.295 -0.84,-0.335 -1.763,-0.635 -2.77,-0.899 -1.008,-0.264 -2.027,-0.552 -3.059,-0.864 -1.007,-0.335 -1.942,-0.755 -2.806,-1.259 -0.839,-0.503 -1.523,-1.175 -2.05,-2.0145 -0.504,-0.8394 -0.756,-1.9067 -0.756,-3.2019 0,-1.3671 0.36,-2.5784 1.079,-3.6337 0.744,-1.0793 1.763,-1.9187 3.058,-2.5184 1.32,-0.6236 2.867,-0.9354 4.641,-0.9354 1.727,0 3.274,0.3238 4.641,0.9714 1.368,0.6236 2.459,1.523 3.274,2.6983 0.84,1.1512 1.272,2.5424 1.296,4.1733 h -3.814 c -0.024,-0.9594 -0.288,-1.7749 -0.792,-2.4464 -0.479,-0.6956 -1.127,-1.2232 -1.942,-1.583 -0.792,-0.3838 -1.679,-0.5756 -2.663,-0.5756 -1.415,0 -2.566,0.3357 -3.453,1.0073 -0.888,0.6716 -1.331,1.583 -1.331,2.7343 0,0.8154 0.251,1.463 0.755,1.9427 0.528,0.4797 1.211,0.8754 2.051,1.1873 0.863,0.2878 1.799,0.5636 2.806,0.8274 1.031,0.2399 2.051,0.5279 3.058,0.8639 1.007,0.311 1.931,0.743 2.77,1.295 0.864,0.527 1.547,1.247 2.051,2.158 0.528,0.888 0.791,2.027 0.791,3.418 0,1.487 -0.395,2.782 -1.187,3.886 -0.791,1.079 -1.871,1.918 -3.238,2.518 -1.367,0.6 -2.914,0.899 -4.641,0.899 z"
       fill="#9e9586"
       id="path1" />
    <circle
       cx="58.471802"
       cy="62.334301"
       r="49.738201"
       stroke="#0cb39b"
       stroke-width="5.81355"
       id="circle1" />
    <path
       d="M 151.815,70 V 18.1021 h 36.656 v 4.4611 H 156.797 V 40.8539 H 179.4 V 45.315 H 156.797 V 70 Z m 45.979,0 V 18.1021 h 4.982 v 47.4368 h 28.551 V 70 Z m 57.503,0.8922 c -4.312,0 -8.054,-1.0905 -11.227,-3.2715 -3.172,-2.2305 -5.626,-5.3533 -7.361,-9.3684 -1.735,-4.0646 -2.602,-8.7983 -2.602,-14.2013 0,-5.4029 0.867,-10.1119 2.602,-14.1269 1.735,-4.0646 4.189,-7.1874 7.361,-9.3684 3.173,-2.2306 6.915,-3.3458 11.227,-3.3458 4.313,0 8.055,1.1152 11.228,3.3458 3.172,2.181 5.626,5.3038 7.361,9.3684 1.734,4.015 2.602,8.724 2.602,14.1269 0,5.403 -0.868,10.1367 -2.602,14.2013 -1.735,4.0151 -4.189,7.1379 -7.361,9.3684 -3.173,2.181 -6.915,3.2715 -11.228,3.2715 z m 0,-4.4611 c 3.222,0 6.023,-0.917 8.402,-2.751 2.38,-1.8836 4.214,-4.5108 5.502,-7.8814 1.339,-3.3706 2.008,-7.2865 2.008,-11.7477 0,-4.4611 -0.669,-8.377 -2.008,-11.7476 -1.288,-3.3707 -3.122,-5.973 -5.502,-7.807 -2.379,-1.8836 -5.18,-2.8254 -8.402,-2.8254 -3.221,0 -6.022,0.9418 -8.401,2.8254 -2.38,1.8836 -4.238,4.5107 -5.577,7.8813 -1.289,3.3211 -1.933,7.2122 -1.933,11.6733 0,4.4612 0.644,8.3771 1.933,11.7477 1.339,3.3706 3.197,5.9978 5.577,7.8814 2.379,1.834 5.18,2.751 8.401,2.751 z M 289.529,70 282.242,18.1021 h 4.907 l 5.131,36.73 1.115,10.1863 1.859,-10.1863 7.509,-36.73 h 5.131 l 7.435,36.73 1.784,10.2606 0.967,-10.2606 5.056,-36.73 h 4.833 L 320.682,70 h -6.84 L 306.853,35.0544 305.366,25.6117 303.73,35.0544 296.518,70 Z"
       fill="#0cb39b"
       id="path2" />
    <path
       d="M 58.1489,61.373 5.18091,114.341"
       stroke="#9e9586"
       stroke-width="5.81355"
       stroke-linecap="round"
       id="path3" />
    <path
       d="M 58.1489,61.3729 111.117,114.341"
       stroke="#9e9586"
       stroke-width="5.81355"
       stroke-linecap="round"
       id="path4" />
  </g>
</svg>
